<mxfile host="app.diagrams.net" agent="Mozilla/5.0 (Windows NT 10.0; Win64; x64) AppleWebKit/537.36 (KHTML, like Gecko) Chrome/133.0.0.0 Safari/537.36 OPR/118.0.0.0" version="27.0.5">
  <diagram id="C5RBs43oDa-KdzZeNtuy" name="Page-1">
    <mxGraphModel dx="953" dy="528" grid="1" gridSize="10" guides="1" tooltips="1" connect="1" arrows="1" fold="1" page="1" pageScale="1" pageWidth="827" pageHeight="1169" math="0" shadow="0">
      <root>
        <mxCell id="WIyWlLk6GJQsqaUBKTNV-0" />
        <mxCell id="WIyWlLk6GJQsqaUBKTNV-1" parent="WIyWlLk6GJQsqaUBKTNV-0" />
        <mxCell id="WIyWlLk6GJQsqaUBKTNV-3" value="Données recettes (JSON)" style="rounded=1;whiteSpace=wrap;html=1;fontSize=12;glass=0;strokeWidth=1;shadow=0;fillColor=#f5f5f5;fontColor=#333333;strokeColor=#666666;" parent="WIyWlLk6GJQsqaUBKTNV-1" vertex="1">
          <mxGeometry x="320" y="20" width="160" height="50" as="geometry" />
        </mxCell>
        <mxCell id="WIyWlLk6GJQsqaUBKTNV-10" value="Affichage de toutes les recettes disponible" style="rhombus;whiteSpace=wrap;html=1;shadow=0;fontFamily=Helvetica;fontSize=12;align=center;strokeWidth=1;spacing=6;spacingTop=-4;fillColor=#fff2cc;strokeColor=#d6b656;" parent="WIyWlLk6GJQsqaUBKTNV-1" vertex="1">
          <mxGeometry x="420" y="240" width="200" height="110" as="geometry" />
        </mxCell>
        <mxCell id="WIyWlLk6GJQsqaUBKTNV-11" value="Création d&#39;un tableau searchResults = [ ]" style="rounded=1;whiteSpace=wrap;html=1;fontSize=12;glass=0;strokeWidth=1;shadow=0;fillColor=#f5f5f5;fontColor=#333333;strokeColor=#666666;" parent="WIyWlLk6GJQsqaUBKTNV-1" vertex="1">
          <mxGeometry x="210" y="270" width="140" height="40" as="geometry" />
        </mxCell>
        <mxCell id="WIyWlLk6GJQsqaUBKTNV-12" value="Vérification longueur &amp;gt;= 3" style="rounded=1;whiteSpace=wrap;html=1;fontSize=12;glass=0;strokeWidth=1;shadow=0;fillColor=#f5f5f5;fontColor=#333333;strokeColor=#666666;" parent="WIyWlLk6GJQsqaUBKTNV-1" vertex="1">
          <mxGeometry x="320" y="200" width="160" height="40" as="geometry" />
        </mxCell>
        <mxCell id="rs6OKuSXB6lRq19mN8mg-0" value="" style="endArrow=classic;html=1;rounded=0;" edge="1" parent="WIyWlLk6GJQsqaUBKTNV-1">
          <mxGeometry width="50" height="50" relative="1" as="geometry">
            <mxPoint x="399.5" y="70" as="sourcePoint" />
            <mxPoint x="400" y="110" as="targetPoint" />
          </mxGeometry>
        </mxCell>
        <mxCell id="rs6OKuSXB6lRq19mN8mg-1" value="Utilisateur entre une query dans le champ de recherche" style="rounded=1;whiteSpace=wrap;html=1;fontSize=12;glass=0;strokeWidth=1;shadow=0;fillColor=#f5f5f5;fontColor=#333333;strokeColor=#666666;" vertex="1" parent="WIyWlLk6GJQsqaUBKTNV-1">
          <mxGeometry x="310" y="110" width="180" height="50" as="geometry" />
        </mxCell>
        <mxCell id="rs6OKuSXB6lRq19mN8mg-2" value="" style="endArrow=classic;html=1;rounded=0;" edge="1" parent="WIyWlLk6GJQsqaUBKTNV-1">
          <mxGeometry width="50" height="50" relative="1" as="geometry">
            <mxPoint x="399.75" y="160" as="sourcePoint" />
            <mxPoint x="400.25" y="200" as="targetPoint" />
          </mxGeometry>
        </mxCell>
        <mxCell id="rs6OKuSXB6lRq19mN8mg-3" value="" style="edgeStyle=segmentEdgeStyle;endArrow=classic;html=1;curved=0;rounded=0;endSize=8;startSize=8;" edge="1" parent="WIyWlLk6GJQsqaUBKTNV-1">
          <mxGeometry width="50" height="50" relative="1" as="geometry">
            <mxPoint x="480" y="220" as="sourcePoint" />
            <mxPoint x="520" y="240" as="targetPoint" />
          </mxGeometry>
        </mxCell>
        <mxCell id="rs6OKuSXB6lRq19mN8mg-4" value="" style="edgeStyle=segmentEdgeStyle;endArrow=classic;html=1;curved=0;rounded=0;endSize=8;startSize=8;" edge="1" parent="WIyWlLk6GJQsqaUBKTNV-1">
          <mxGeometry width="50" height="50" relative="1" as="geometry">
            <mxPoint x="320" y="220" as="sourcePoint" />
            <mxPoint x="280" y="270" as="targetPoint" />
          </mxGeometry>
        </mxCell>
        <mxCell id="rs6OKuSXB6lRq19mN8mg-5" value="Boucle for (i = 0 ; i &amp;lt; recipes.length ; i++)" style="rounded=1;whiteSpace=wrap;html=1;fontSize=12;glass=0;strokeWidth=1;shadow=0;fillColor=#f5f5f5;fontColor=#333333;strokeColor=#666666;" vertex="1" parent="WIyWlLk6GJQsqaUBKTNV-1">
          <mxGeometry x="210" y="350" width="140" height="40" as="geometry" />
        </mxCell>
        <mxCell id="rs6OKuSXB6lRq19mN8mg-6" value="" style="endArrow=classic;html=1;rounded=0;" edge="1" parent="WIyWlLk6GJQsqaUBKTNV-1" target="rs6OKuSXB6lRq19mN8mg-5">
          <mxGeometry width="50" height="50" relative="1" as="geometry">
            <mxPoint x="279.75" y="310" as="sourcePoint" />
            <mxPoint x="280" y="330" as="targetPoint" />
          </mxGeometry>
        </mxCell>
        <mxCell id="rs6OKuSXB6lRq19mN8mg-7" value="" style="endArrow=classic;html=1;rounded=0;" edge="1" parent="WIyWlLk6GJQsqaUBKTNV-1">
          <mxGeometry width="50" height="50" relative="1" as="geometry">
            <mxPoint x="279.8" y="390" as="sourcePoint" />
            <mxPoint x="280.05" y="430" as="targetPoint" />
          </mxGeometry>
        </mxCell>
        <mxCell id="rs6OKuSXB6lRq19mN8mg-8" value="description.toLowerCase().&lt;div&gt;includes(query)&lt;/div&gt;" style="rounded=1;whiteSpace=wrap;html=1;fontSize=12;glass=0;strokeWidth=1;shadow=0;fillColor=#f5f5f5;fontColor=#333333;strokeColor=#666666;" vertex="1" parent="WIyWlLk6GJQsqaUBKTNV-1">
          <mxGeometry x="200" y="430" width="160" height="40" as="geometry" />
        </mxCell>
        <mxCell id="rs6OKuSXB6lRq19mN8mg-9" value="name.toLowerCase().&lt;div&gt;includes(query)&lt;/div&gt;" style="rounded=1;whiteSpace=wrap;html=1;fontSize=12;glass=0;strokeWidth=1;shadow=0;fillColor=#f5f5f5;fontColor=#333333;strokeColor=#666666;" vertex="1" parent="WIyWlLk6GJQsqaUBKTNV-1">
          <mxGeometry x="50" y="430" width="140" height="40" as="geometry" />
        </mxCell>
        <mxCell id="rs6OKuSXB6lRq19mN8mg-10" value="boucle sur recipe.ingredients" style="rounded=1;whiteSpace=wrap;html=1;fontSize=12;glass=0;strokeWidth=1;shadow=0;fillColor=#f5f5f5;fontColor=#333333;strokeColor=#666666;" vertex="1" parent="WIyWlLk6GJQsqaUBKTNV-1">
          <mxGeometry x="370" y="430" width="110" height="40" as="geometry" />
        </mxCell>
        <mxCell id="rs6OKuSXB6lRq19mN8mg-12" value="" style="edgeStyle=segmentEdgeStyle;endArrow=classic;html=1;curved=0;rounded=0;endSize=8;startSize=8;exitX=1;exitY=0.5;exitDx=0;exitDy=0;entryX=0.5;entryY=0;entryDx=0;entryDy=0;" edge="1" parent="WIyWlLk6GJQsqaUBKTNV-1" source="rs6OKuSXB6lRq19mN8mg-5" target="rs6OKuSXB6lRq19mN8mg-10">
          <mxGeometry width="50" height="50" relative="1" as="geometry">
            <mxPoint x="400" y="370" as="sourcePoint" />
            <mxPoint x="440" y="390" as="targetPoint" />
          </mxGeometry>
        </mxCell>
        <mxCell id="rs6OKuSXB6lRq19mN8mg-13" value="" style="edgeStyle=segmentEdgeStyle;endArrow=classic;html=1;curved=0;rounded=0;endSize=8;startSize=8;entryX=0.5;entryY=0;entryDx=0;entryDy=0;exitX=0;exitY=0.5;exitDx=0;exitDy=0;" edge="1" parent="WIyWlLk6GJQsqaUBKTNV-1" source="rs6OKuSXB6lRq19mN8mg-5" target="rs6OKuSXB6lRq19mN8mg-9">
          <mxGeometry width="50" height="50" relative="1" as="geometry">
            <mxPoint x="160" y="370" as="sourcePoint" />
            <mxPoint x="120" y="420" as="targetPoint" />
          </mxGeometry>
        </mxCell>
        <mxCell id="rs6OKuSXB6lRq19mN8mg-15" value="" style="endArrow=classic;html=1;rounded=0;" edge="1" parent="WIyWlLk6GJQsqaUBKTNV-1">
          <mxGeometry width="50" height="50" relative="1" as="geometry">
            <mxPoint x="424.8" y="470" as="sourcePoint" />
            <mxPoint x="425.05" y="510" as="targetPoint" />
          </mxGeometry>
        </mxCell>
        <mxCell id="rs6OKuSXB6lRq19mN8mg-16" value="ajouter à searchResults&amp;nbsp;" style="rounded=1;whiteSpace=wrap;html=1;fontSize=12;glass=0;strokeWidth=1;shadow=0;fillColor=#f5f5f5;fontColor=#333333;strokeColor=#666666;" vertex="1" parent="WIyWlLk6GJQsqaUBKTNV-1">
          <mxGeometry x="370" y="510" width="110" height="40" as="geometry" />
        </mxCell>
        <mxCell id="rs6OKuSXB6lRq19mN8mg-18" value="" style="endArrow=classic;html=1;rounded=0;" edge="1" parent="WIyWlLk6GJQsqaUBKTNV-1">
          <mxGeometry width="50" height="50" relative="1" as="geometry">
            <mxPoint x="280" y="470" as="sourcePoint" />
            <mxPoint x="280" y="580" as="targetPoint" />
          </mxGeometry>
        </mxCell>
        <mxCell id="rs6OKuSXB6lRq19mN8mg-19" value="&lt;font style=&quot;font-size: 11px;&quot;&gt;Affichage des résultats via displayRecipes (boucle forEach)&lt;/font&gt;" style="rhombus;whiteSpace=wrap;html=1;shadow=0;fontFamily=Helvetica;fontSize=12;align=center;strokeWidth=1;spacing=6;spacingTop=-4;fillColor=#fff2cc;strokeColor=#d6b656;" vertex="1" parent="WIyWlLk6GJQsqaUBKTNV-1">
          <mxGeometry x="180" y="580" width="200" height="100" as="geometry" />
        </mxCell>
        <mxCell id="rs6OKuSXB6lRq19mN8mg-23" value="" style="edgeStyle=segmentEdgeStyle;endArrow=classic;html=1;curved=0;rounded=0;endSize=8;startSize=8;exitX=0.5;exitY=1;exitDx=0;exitDy=0;" edge="1" parent="WIyWlLk6GJQsqaUBKTNV-1" source="rs6OKuSXB6lRq19mN8mg-9">
          <mxGeometry width="50" height="50" relative="1" as="geometry">
            <mxPoint x="120" y="480" as="sourcePoint" />
            <mxPoint x="180" y="630" as="targetPoint" />
            <Array as="points">
              <mxPoint x="120" y="630" />
            </Array>
          </mxGeometry>
        </mxCell>
        <mxCell id="rs6OKuSXB6lRq19mN8mg-24" value="" style="edgeStyle=segmentEdgeStyle;endArrow=classic;html=1;curved=0;rounded=0;endSize=8;startSize=8;entryX=1;entryY=0.5;entryDx=0;entryDy=0;exitX=0.539;exitY=0.992;exitDx=0;exitDy=0;exitPerimeter=0;" edge="1" parent="WIyWlLk6GJQsqaUBKTNV-1" source="rs6OKuSXB6lRq19mN8mg-16" target="rs6OKuSXB6lRq19mN8mg-19">
          <mxGeometry width="50" height="50" relative="1" as="geometry">
            <mxPoint x="430" y="580" as="sourcePoint" />
            <mxPoint x="390" y="630" as="targetPoint" />
            <Array as="points">
              <mxPoint x="429" y="630" />
            </Array>
          </mxGeometry>
        </mxCell>
        <mxCell id="rs6OKuSXB6lRq19mN8mg-26" value="" style="endArrow=classic;html=1;rounded=0;" edge="1" parent="WIyWlLk6GJQsqaUBKTNV-1">
          <mxGeometry width="50" height="50" relative="1" as="geometry">
            <mxPoint x="279.8" y="680" as="sourcePoint" />
            <mxPoint x="280.05" y="720" as="targetPoint" />
          </mxGeometry>
        </mxCell>
        <mxCell id="rs6OKuSXB6lRq19mN8mg-28" value="&lt;font&gt;L&#39;utilisateur sélectionne un ou plusieurs tags (dropdowns)&lt;/font&gt;" style="rhombus;whiteSpace=wrap;html=1;shadow=0;fontFamily=Helvetica;fontSize=12;align=center;strokeWidth=1;spacing=6;spacingTop=-4;fillColor=#fff2cc;strokeColor=#d6b656;" vertex="1" parent="WIyWlLk6GJQsqaUBKTNV-1">
          <mxGeometry x="180" y="720" width="200" height="100" as="geometry" />
        </mxCell>
        <mxCell id="rs6OKuSXB6lRq19mN8mg-29" value="" style="endArrow=classic;html=1;rounded=0;" edge="1" parent="WIyWlLk6GJQsqaUBKTNV-1">
          <mxGeometry width="50" height="50" relative="1" as="geometry">
            <mxPoint x="279.8" y="820" as="sourcePoint" />
            <mxPoint x="280.05" y="860" as="targetPoint" />
          </mxGeometry>
        </mxCell>
        <mxCell id="rs6OKuSXB6lRq19mN8mg-30" value="Boucle sur les recettes filtrées (for), pour chaque tag actif :&amp;nbsp;&amp;nbsp;" style="rounded=1;whiteSpace=wrap;html=1;fontSize=12;glass=0;strokeWidth=1;shadow=0;fillColor=#f5f5f5;fontColor=#333333;strokeColor=#666666;" vertex="1" parent="WIyWlLk6GJQsqaUBKTNV-1">
          <mxGeometry x="190" y="860" width="180" height="50" as="geometry" />
        </mxCell>
        <mxCell id="rs6OKuSXB6lRq19mN8mg-31" value="" style="endArrow=classic;html=1;rounded=0;" edge="1" parent="WIyWlLk6GJQsqaUBKTNV-1">
          <mxGeometry width="50" height="50" relative="1" as="geometry">
            <mxPoint x="279.8" y="910" as="sourcePoint" />
            <mxPoint x="280.05" y="950" as="targetPoint" />
          </mxGeometry>
        </mxCell>
        <mxCell id="rs6OKuSXB6lRq19mN8mg-32" value="Ustensiles" style="rounded=1;whiteSpace=wrap;html=1;fontSize=12;glass=0;strokeWidth=1;shadow=0;fillColor=#f5f5f5;fontColor=#333333;strokeColor=#666666;" vertex="1" parent="WIyWlLk6GJQsqaUBKTNV-1">
          <mxGeometry x="240" y="950" width="80" height="30" as="geometry" />
        </mxCell>
        <mxCell id="rs6OKuSXB6lRq19mN8mg-33" value="" style="edgeStyle=segmentEdgeStyle;endArrow=classic;html=1;curved=0;rounded=0;endSize=8;startSize=8;" edge="1" parent="WIyWlLk6GJQsqaUBKTNV-1">
          <mxGeometry width="50" height="50" relative="1" as="geometry">
            <mxPoint x="370" y="880" as="sourcePoint" />
            <mxPoint x="394" y="950" as="targetPoint" />
          </mxGeometry>
        </mxCell>
        <mxCell id="rs6OKuSXB6lRq19mN8mg-34" value="Appareil" style="rounded=1;whiteSpace=wrap;html=1;fontSize=12;glass=0;strokeWidth=1;shadow=0;fillColor=#f5f5f5;fontColor=#333333;strokeColor=#666666;" vertex="1" parent="WIyWlLk6GJQsqaUBKTNV-1">
          <mxGeometry x="360" y="950" width="70" height="30" as="geometry" />
        </mxCell>
        <mxCell id="rs6OKuSXB6lRq19mN8mg-35" value="" style="edgeStyle=segmentEdgeStyle;endArrow=classic;html=1;curved=0;rounded=0;endSize=8;startSize=8;entryX=0.5;entryY=0;entryDx=0;entryDy=0;" edge="1" parent="WIyWlLk6GJQsqaUBKTNV-1" target="rs6OKuSXB6lRq19mN8mg-36">
          <mxGeometry width="50" height="50" relative="1" as="geometry">
            <mxPoint x="190" y="880" as="sourcePoint" />
            <mxPoint x="162.88" y="940" as="targetPoint" />
          </mxGeometry>
        </mxCell>
        <mxCell id="rs6OKuSXB6lRq19mN8mg-36" value="Ingrédients" style="rounded=1;whiteSpace=wrap;html=1;fontSize=12;glass=0;strokeWidth=1;shadow=0;fillColor=#f5f5f5;fontColor=#333333;strokeColor=#666666;" vertex="1" parent="WIyWlLk6GJQsqaUBKTNV-1">
          <mxGeometry x="120" y="950" width="80" height="30" as="geometry" />
        </mxCell>
        <mxCell id="rs6OKuSXB6lRq19mN8mg-37" value="Oui" style="text;html=1;align=center;verticalAlign=middle;whiteSpace=wrap;rounded=0;" vertex="1" parent="WIyWlLk6GJQsqaUBKTNV-1">
          <mxGeometry x="230" y="190" width="60" height="30" as="geometry" />
        </mxCell>
        <mxCell id="rs6OKuSXB6lRq19mN8mg-38" value="Non" style="text;html=1;align=center;verticalAlign=middle;whiteSpace=wrap;rounded=0;" vertex="1" parent="WIyWlLk6GJQsqaUBKTNV-1">
          <mxGeometry x="500" y="190" width="60" height="30" as="geometry" />
        </mxCell>
        <mxCell id="rs6OKuSXB6lRq19mN8mg-39" value="" style="endArrow=classic;html=1;rounded=0;" edge="1" parent="WIyWlLk6GJQsqaUBKTNV-1">
          <mxGeometry width="50" height="50" relative="1" as="geometry">
            <mxPoint x="279.8" y="980" as="sourcePoint" />
            <mxPoint x="280.05" y="1020" as="targetPoint" />
          </mxGeometry>
        </mxCell>
        <mxCell id="rs6OKuSXB6lRq19mN8mg-40" value="" style="edgeStyle=segmentEdgeStyle;endArrow=classic;html=1;curved=0;rounded=0;endSize=8;startSize=8;exitX=0.571;exitY=1;exitDx=0;exitDy=0;exitPerimeter=0;" edge="1" parent="WIyWlLk6GJQsqaUBKTNV-1" source="rs6OKuSXB6lRq19mN8mg-34">
          <mxGeometry width="50" height="50" relative="1" as="geometry">
            <mxPoint x="400" y="1010" as="sourcePoint" />
            <mxPoint x="380" y="1060" as="targetPoint" />
            <Array as="points">
              <mxPoint x="400" y="1060" />
            </Array>
          </mxGeometry>
        </mxCell>
        <mxCell id="rs6OKuSXB6lRq19mN8mg-41" value="&lt;font style=&quot;font-size: 11px;&quot;&gt;Affichage final avec des tags seléctionnés&lt;/font&gt;" style="rhombus;whiteSpace=wrap;html=1;shadow=0;fontFamily=Helvetica;fontSize=12;align=center;strokeWidth=1;spacing=6;spacingTop=-4;fillColor=#fff2cc;strokeColor=#d6b656;" vertex="1" parent="WIyWlLk6GJQsqaUBKTNV-1">
          <mxGeometry x="180" y="1020" width="200" height="80" as="geometry" />
        </mxCell>
        <mxCell id="rs6OKuSXB6lRq19mN8mg-42" value="" style="edgeStyle=segmentEdgeStyle;endArrow=classic;html=1;curved=0;rounded=0;endSize=8;startSize=8;exitX=0.5;exitY=1;exitDx=0;exitDy=0;" edge="1" parent="WIyWlLk6GJQsqaUBKTNV-1" source="rs6OKuSXB6lRq19mN8mg-36">
          <mxGeometry width="50" height="50" relative="1" as="geometry">
            <mxPoint x="160" y="1030" as="sourcePoint" />
            <mxPoint x="180" y="1060" as="targetPoint" />
            <Array as="points">
              <mxPoint x="160" y="1060" />
            </Array>
          </mxGeometry>
        </mxCell>
        <mxCell id="rs6OKuSXB6lRq19mN8mg-43" value="si ingredient.includes(query)" style="text;html=1;align=center;verticalAlign=middle;whiteSpace=wrap;rounded=0;" vertex="1" parent="WIyWlLk6GJQsqaUBKTNV-1">
          <mxGeometry x="435" y="480" width="170" height="20" as="geometry" />
        </mxCell>
        <mxCell id="rs6OKuSXB6lRq19mN8mg-44" value="vérifie" style="text;html=1;align=center;verticalAlign=middle;whiteSpace=wrap;rounded=0;" vertex="1" parent="WIyWlLk6GJQsqaUBKTNV-1">
          <mxGeometry x="90" y="350" width="50" height="20" as="geometry" />
        </mxCell>
        <mxCell id="rs6OKuSXB6lRq19mN8mg-45" value="vérifie" style="text;html=1;align=center;verticalAlign=middle;whiteSpace=wrap;rounded=0;" vertex="1" parent="WIyWlLk6GJQsqaUBKTNV-1">
          <mxGeometry x="220" y="400" width="50" height="20" as="geometry" />
        </mxCell>
        <mxCell id="rs6OKuSXB6lRq19mN8mg-46" value="vérifie" style="text;html=1;align=center;verticalAlign=middle;whiteSpace=wrap;rounded=0;" vertex="1" parent="WIyWlLk6GJQsqaUBKTNV-1">
          <mxGeometry x="420" y="350" width="50" height="20" as="geometry" />
        </mxCell>
        <mxCell id="rs6OKuSXB6lRq19mN8mg-47" value="Vérifie avec boucle for si tag présent dans :" style="text;html=1;align=center;verticalAlign=middle;whiteSpace=wrap;rounded=0;" vertex="1" parent="WIyWlLk6GJQsqaUBKTNV-1">
          <mxGeometry x="400" y="900" width="170" height="20" as="geometry" />
        </mxCell>
      </root>
    </mxGraphModel>
  </diagram>
</mxfile>
